<svg xmlns="http://www.w3.org/2000/svg" version="1.1" xmlns:xlink="http://www.w3.org/1999/xlink" xmlns:svgjs="http://svgjs.dev/svgjs" width="1440" height="560" preserveAspectRatio="none" viewBox="0 0 1440 560"><g mask="url(&quot;#SvgjsMask1088&quot;)" fill="none"><rect width="1440" height="560" x="0" y="0" fill="#0e2a47"></rect><g mask="url(&quot;#SvgjsMask1089&quot;)"><path d="M1442 294L1414 266M1470 294L1442 294L1414 294L1386 294L1358 294L1330 294" stroke="#3a7cc3" stroke-width="4.67"></path><path d="M1323 294 a7 7 0 1 0 14 0 a7 7 0 1 0 -14 0zM1407 266 a7 7 0 1 0 14 0 a7 7 0 1 0 -14 0z" fill="#3a7cc3"></path><path d="M910 294L882 322L854 322M826 266L798 238L770 238L742 238L714 238M602 238L574 266L546 266L518 266L490 266L462 266L434 266L406 266L378 266L350 266L322 238M994 266L966 238L938 238L910 238L882 238L854 238L826 238L798 210L770 210L742 210L714 182L686 182M518 238L490 210M882 294L854 294L826 294L798 322L770 322M1218 266L1190 294L1162 294L1134 294M630 238L602 266L574 294L546 294L518 294L490 294L462 322L434 322M1302 266L1274 238L1246 238M1470 266L1442 238L1414 238L1386 238L1358 266L1330 266L1302 266L1274 266L1246 266L1218 266L1190 266L1162 266L1134 266L1106 266L1078 266L1050 266L1022 266L994 266L966 266L938 294L910 294L882 294L854 266L826 266L798 266L770 266L742 266L714 266L686 238L658 238L630 238L602 238L574 238L546 238L518 238L490 238L462 210" stroke="#dd1133" stroke-width="4.67"></path><path d="M455 210 a7 7 0 1 0 14 0 a7 7 0 1 0 -14 0zM847 322 a7 7 0 1 0 14 0 a7 7 0 1 0 -14 0zM707 238 a7 7 0 1 0 14 0 a7 7 0 1 0 -14 0zM315 238 a7 7 0 1 0 14 0 a7 7 0 1 0 -14 0zM679 182 a7 7 0 1 0 14 0 a7 7 0 1 0 -14 0zM483 210 a7 7 0 1 0 14 0 a7 7 0 1 0 -14 0zM763 322 a7 7 0 1 0 14 0 a7 7 0 1 0 -14 0zM1127 294 a7 7 0 1 0 14 0 a7 7 0 1 0 -14 0zM427 322 a7 7 0 1 0 14 0 a7 7 0 1 0 -14 0zM1239 238 a7 7 0 1 0 14 0 a7 7 0 1 0 -14 0z" fill="#dd1133"></path><path d="M1162 322L1134 350L1106 350L1078 350M1022 294L994 322L966 350L938 350M1246 322L1218 350L1190 350M1106 294L1078 322L1050 322L1022 322M1470 322L1442 322L1414 322L1386 322L1358 322L1330 322L1302 322L1274 322L1246 322L1218 322L1190 322L1162 322L1134 322L1106 294L1078 294L1050 294L1022 294L994 294L966 294" stroke="#3a7cc3" stroke-width="4.67"></path><path d="M959 294 a7 7 0 1 0 14 0 a7 7 0 1 0 -14 0zM1071 350 a7 7 0 1 0 14 0 a7 7 0 1 0 -14 0zM931 350 a7 7 0 1 0 14 0 a7 7 0 1 0 -14 0zM1183 350 a7 7 0 1 0 14 0 a7 7 0 1 0 -14 0zM1015 322 a7 7 0 1 0 14 0 a7 7 0 1 0 -14 0z" fill="#3a7cc3"></path><path d="M1022 378L994 350M910 378L882 378L854 378L826 378L798 378M630 350L602 322L574 322L546 322L518 322L490 322L462 350L434 350L406 378L378 378L350 378M1330 350L1302 350L1274 350M658 350L630 322L602 294M1050 378L1022 350M714 350L686 378M770 350L742 378L714 378M1470 350L1442 350L1414 350L1386 350L1358 350L1330 350L1302 378L1274 378L1246 378L1218 378L1190 378L1162 378L1134 378L1106 378L1078 378L1050 378L1022 378L994 378L966 378L938 378L910 378L882 350L854 350L826 350L798 350L770 350L742 350L714 350L686 350L658 350L630 350L602 350" stroke="#dd1133" stroke-width="4.67"></path><path d="M595 350 a7 7 0 1 0 14 0 a7 7 0 1 0 -14 0zM987 350 a7 7 0 1 0 14 0 a7 7 0 1 0 -14 0zM791 378 a7 7 0 1 0 14 0 a7 7 0 1 0 -14 0zM343 378 a7 7 0 1 0 14 0 a7 7 0 1 0 -14 0zM1267 350 a7 7 0 1 0 14 0 a7 7 0 1 0 -14 0zM595 294 a7 7 0 1 0 14 0 a7 7 0 1 0 -14 0zM1015 350 a7 7 0 1 0 14 0 a7 7 0 1 0 -14 0zM679 378 a7 7 0 1 0 14 0 a7 7 0 1 0 -14 0zM707 378 a7 7 0 1 0 14 0 a7 7 0 1 0 -14 0z" fill="#dd1133"></path><path d="M1078 182L1050 154M1218 154L1190 182L1162 182M1106 182L1078 154M1330 182L1302 182L1274 182M1470 210L1442 182L1414 182L1386 182L1358 182L1330 182L1302 154L1274 154L1246 154L1218 154L1190 154L1162 154L1134 154L1106 182L1078 182L1050 182" stroke="#3a7cc3" stroke-width="4.67"></path><path d="M1043 182 a7 7 0 1 0 14 0 a7 7 0 1 0 -14 0zM1043 154 a7 7 0 1 0 14 0 a7 7 0 1 0 -14 0zM1155 182 a7 7 0 1 0 14 0 a7 7 0 1 0 -14 0zM1071 154 a7 7 0 1 0 14 0 a7 7 0 1 0 -14 0zM1267 182 a7 7 0 1 0 14 0 a7 7 0 1 0 -14 0z" fill="#3a7cc3"></path><path d="M658 378L630 406L602 406L574 434L546 434M686 406L658 406M546 378L518 350L490 350M518 378L490 406L462 406M882 406L854 434M1106 406L1078 434L1050 434L1022 434L994 434M966 406L938 434M574 378L546 350M910 406L882 434M1470 378L1442 378L1414 378L1386 378L1358 378L1330 378L1302 406L1274 406L1246 406L1218 406L1190 406L1162 406L1134 406L1106 406L1078 406L1050 406L1022 406L994 406L966 406L938 406L910 406L882 406L854 406L826 406L798 406L770 406L742 406L714 406L686 406L658 378L630 378L602 378L574 378L546 378L518 378L490 378" stroke="#dd1133" stroke-width="4.67"></path><path d="M483 378 a7 7 0 1 0 14 0 a7 7 0 1 0 -14 0zM539 434 a7 7 0 1 0 14 0 a7 7 0 1 0 -14 0zM651 406 a7 7 0 1 0 14 0 a7 7 0 1 0 -14 0zM483 350 a7 7 0 1 0 14 0 a7 7 0 1 0 -14 0zM455 406 a7 7 0 1 0 14 0 a7 7 0 1 0 -14 0zM847 434 a7 7 0 1 0 14 0 a7 7 0 1 0 -14 0zM987 434 a7 7 0 1 0 14 0 a7 7 0 1 0 -14 0zM931 434 a7 7 0 1 0 14 0 a7 7 0 1 0 -14 0zM539 350 a7 7 0 1 0 14 0 a7 7 0 1 0 -14 0zM875 434 a7 7 0 1 0 14 0 a7 7 0 1 0 -14 0z" fill="#dd1133"></path><path d="M770 434L742 462M966 462L938 490L910 490M574 462L546 490L518 490L490 490L462 490L434 490L406 490L378 490L350 490L322 490L294 490M1358 406L1330 434L1302 462L1274 462L1246 462L1218 490M1190 434L1162 462L1134 490L1106 490L1078 490L1050 490L1022 490L994 490L966 490M1162 434L1134 434L1106 434M798 434L770 462L742 490M1414 406L1386 434L1358 434L1330 462L1302 490L1274 518L1246 518L1218 518L1190 518L1162 518L1134 518L1106 518L1078 518L1050 518M1470 406L1442 406L1414 406L1386 406L1358 406L1330 406L1302 434L1274 434L1246 434L1218 434L1190 434L1162 434L1134 462L1106 462L1078 462L1050 462L1022 462L994 462L966 462L938 462L910 462L882 462L854 462L826 434L798 434L770 434L742 434L714 434L686 434L658 434L630 434L602 462L574 462L546 462L518 462" stroke="#3a7cc3" stroke-width="4.67"></path><path d="M511 462 a7 7 0 1 0 14 0 a7 7 0 1 0 -14 0zM735 462 a7 7 0 1 0 14 0 a7 7 0 1 0 -14 0zM903 490 a7 7 0 1 0 14 0 a7 7 0 1 0 -14 0zM287 490 a7 7 0 1 0 14 0 a7 7 0 1 0 -14 0zM1211 490 a7 7 0 1 0 14 0 a7 7 0 1 0 -14 0zM959 490 a7 7 0 1 0 14 0 a7 7 0 1 0 -14 0zM1099 434 a7 7 0 1 0 14 0 a7 7 0 1 0 -14 0zM735 490 a7 7 0 1 0 14 0 a7 7 0 1 0 -14 0zM1043 518 a7 7 0 1 0 14 0 a7 7 0 1 0 -14 0z" fill="#3a7cc3"></path><path d="M1106 126L1078 98M1386 154L1358 126L1330 126L1302 98L1274 98L1246 98L1218 98L1190 98L1162 98L1134 98L1106 98L1078 70L1050 70L1022 70L994 70M910 98L882 98L854 98L826 98L798 98L770 98L742 98L714 70L686 70L658 70L630 70M882 126L854 154L826 182L798 182L770 182L742 182L714 154L686 154L658 154L630 154L602 154L574 154M378 126L350 98L322 70L294 70L266 70L238 70L210 70M406 126L378 154L350 154L322 154M350 126L322 126L294 126L266 154L238 154M630 98L602 126M434 126L406 98L378 98L350 70M574 126L546 98L518 98M1470 154L1442 154L1414 154L1386 154L1358 154L1330 154L1302 126L1274 126L1246 126L1218 126L1190 126L1162 126L1134 126L1106 126L1078 126L1050 126L1022 126L994 126L966 98L938 98L910 98L882 126L854 126L826 126L798 126L770 126L742 126L714 98L686 98L658 98L630 98L602 98L574 126L546 126L518 126L490 126L462 126L434 126L406 126L378 126L350 126L322 98L294 98" stroke="#3a7cc3" stroke-width="4.67"></path><path d="M287 98 a7 7 0 1 0 14 0 a7 7 0 1 0 -14 0zM1071 98 a7 7 0 1 0 14 0 a7 7 0 1 0 -14 0zM987 70 a7 7 0 1 0 14 0 a7 7 0 1 0 -14 0zM623 70 a7 7 0 1 0 14 0 a7 7 0 1 0 -14 0zM567 154 a7 7 0 1 0 14 0 a7 7 0 1 0 -14 0zM203 70 a7 7 0 1 0 14 0 a7 7 0 1 0 -14 0zM315 154 a7 7 0 1 0 14 0 a7 7 0 1 0 -14 0zM231 154 a7 7 0 1 0 14 0 a7 7 0 1 0 -14 0zM595 126 a7 7 0 1 0 14 0 a7 7 0 1 0 -14 0zM343 70 a7 7 0 1 0 14 0 a7 7 0 1 0 -14 0zM511 98 a7 7 0 1 0 14 0 a7 7 0 1 0 -14 0z" fill="#3a7cc3"></path></g></g><defs><mask id="SvgjsMask1088"><rect width="1440" height="560" fill="#ffffff"></rect></mask><mask id="SvgjsMask1089"><rect width="1440" height="560" fill="white"></rect><path d="M1326.5 294 a3.5 3.5 0 1 0 7 0 a3.5 3.5 0 1 0 -7 0zM1410.5 266 a3.5 3.5 0 1 0 7 0 a3.5 3.5 0 1 0 -7 0z" fill="black"></path><path d="M458.5 210 a3.5 3.5 0 1 0 7 0 a3.5 3.5 0 1 0 -7 0zM850.5 322 a3.5 3.5 0 1 0 7 0 a3.5 3.5 0 1 0 -7 0zM710.5 238 a3.5 3.5 0 1 0 7 0 a3.5 3.5 0 1 0 -7 0zM318.5 238 a3.5 3.5 0 1 0 7 0 a3.5 3.5 0 1 0 -7 0zM682.5 182 a3.5 3.5 0 1 0 7 0 a3.5 3.5 0 1 0 -7 0zM486.5 210 a3.5 3.5 0 1 0 7 0 a3.5 3.5 0 1 0 -7 0zM766.5 322 a3.5 3.5 0 1 0 7 0 a3.5 3.5 0 1 0 -7 0zM1130.5 294 a3.5 3.5 0 1 0 7 0 a3.5 3.5 0 1 0 -7 0zM430.5 322 a3.5 3.5 0 1 0 7 0 a3.5 3.5 0 1 0 -7 0zM1242.5 238 a3.5 3.5 0 1 0 7 0 a3.5 3.5 0 1 0 -7 0z" fill="black"></path><path d="M962.5 294 a3.5 3.5 0 1 0 7 0 a3.5 3.5 0 1 0 -7 0zM1074.5 350 a3.5 3.5 0 1 0 7 0 a3.5 3.5 0 1 0 -7 0zM934.5 350 a3.5 3.5 0 1 0 7 0 a3.5 3.5 0 1 0 -7 0zM1186.5 350 a3.5 3.5 0 1 0 7 0 a3.5 3.5 0 1 0 -7 0zM1018.5 322 a3.5 3.5 0 1 0 7 0 a3.5 3.5 0 1 0 -7 0z" fill="black"></path><path d="M598.5 350 a3.5 3.5 0 1 0 7 0 a3.5 3.5 0 1 0 -7 0zM990.5 350 a3.5 3.5 0 1 0 7 0 a3.5 3.5 0 1 0 -7 0zM794.5 378 a3.5 3.5 0 1 0 7 0 a3.5 3.5 0 1 0 -7 0zM346.5 378 a3.5 3.5 0 1 0 7 0 a3.5 3.5 0 1 0 -7 0zM1270.5 350 a3.5 3.5 0 1 0 7 0 a3.5 3.5 0 1 0 -7 0zM598.5 294 a3.5 3.5 0 1 0 7 0 a3.5 3.5 0 1 0 -7 0zM1018.5 350 a3.5 3.5 0 1 0 7 0 a3.5 3.5 0 1 0 -7 0zM682.5 378 a3.5 3.5 0 1 0 7 0 a3.5 3.5 0 1 0 -7 0zM710.5 378 a3.5 3.5 0 1 0 7 0 a3.5 3.5 0 1 0 -7 0z" fill="black"></path><path d="M1046.5 182 a3.5 3.5 0 1 0 7 0 a3.5 3.5 0 1 0 -7 0zM1046.5 154 a3.5 3.5 0 1 0 7 0 a3.5 3.5 0 1 0 -7 0zM1158.5 182 a3.5 3.5 0 1 0 7 0 a3.5 3.5 0 1 0 -7 0zM1074.5 154 a3.5 3.5 0 1 0 7 0 a3.5 3.5 0 1 0 -7 0zM1270.5 182 a3.5 3.5 0 1 0 7 0 a3.5 3.5 0 1 0 -7 0z" fill="black"></path><path d="M486.5 378 a3.5 3.5 0 1 0 7 0 a3.5 3.5 0 1 0 -7 0zM542.5 434 a3.5 3.5 0 1 0 7 0 a3.5 3.5 0 1 0 -7 0zM654.5 406 a3.5 3.5 0 1 0 7 0 a3.5 3.5 0 1 0 -7 0zM486.5 350 a3.5 3.5 0 1 0 7 0 a3.5 3.5 0 1 0 -7 0zM458.5 406 a3.5 3.5 0 1 0 7 0 a3.5 3.5 0 1 0 -7 0zM850.5 434 a3.5 3.5 0 1 0 7 0 a3.5 3.5 0 1 0 -7 0zM990.5 434 a3.5 3.5 0 1 0 7 0 a3.5 3.5 0 1 0 -7 0zM934.5 434 a3.5 3.5 0 1 0 7 0 a3.5 3.5 0 1 0 -7 0zM542.5 350 a3.5 3.5 0 1 0 7 0 a3.5 3.5 0 1 0 -7 0zM878.5 434 a3.5 3.5 0 1 0 7 0 a3.5 3.5 0 1 0 -7 0z" fill="black"></path><path d="M514.5 462 a3.5 3.5 0 1 0 7 0 a3.5 3.5 0 1 0 -7 0zM738.5 462 a3.5 3.5 0 1 0 7 0 a3.5 3.5 0 1 0 -7 0zM906.5 490 a3.5 3.5 0 1 0 7 0 a3.5 3.5 0 1 0 -7 0zM290.5 490 a3.5 3.5 0 1 0 7 0 a3.5 3.5 0 1 0 -7 0zM1214.5 490 a3.5 3.5 0 1 0 7 0 a3.5 3.5 0 1 0 -7 0zM962.5 490 a3.5 3.5 0 1 0 7 0 a3.5 3.5 0 1 0 -7 0zM1102.5 434 a3.5 3.5 0 1 0 7 0 a3.5 3.5 0 1 0 -7 0zM738.5 490 a3.5 3.5 0 1 0 7 0 a3.5 3.5 0 1 0 -7 0zM1046.5 518 a3.5 3.5 0 1 0 7 0 a3.5 3.5 0 1 0 -7 0z" fill="black"></path><path d="M290.5 98 a3.5 3.5 0 1 0 7 0 a3.5 3.5 0 1 0 -7 0zM1074.5 98 a3.5 3.5 0 1 0 7 0 a3.5 3.5 0 1 0 -7 0zM990.5 70 a3.5 3.5 0 1 0 7 0 a3.5 3.5 0 1 0 -7 0zM626.5 70 a3.5 3.5 0 1 0 7 0 a3.5 3.5 0 1 0 -7 0zM570.5 154 a3.5 3.5 0 1 0 7 0 a3.5 3.5 0 1 0 -7 0zM206.5 70 a3.5 3.5 0 1 0 7 0 a3.5 3.5 0 1 0 -7 0zM318.5 154 a3.5 3.5 0 1 0 7 0 a3.5 3.5 0 1 0 -7 0zM234.5 154 a3.5 3.5 0 1 0 7 0 a3.5 3.5 0 1 0 -7 0zM598.5 126 a3.5 3.5 0 1 0 7 0 a3.5 3.5 0 1 0 -7 0zM346.5 70 a3.5 3.5 0 1 0 7 0 a3.5 3.5 0 1 0 -7 0zM514.5 98 a3.5 3.5 0 1 0 7 0 a3.5 3.5 0 1 0 -7 0z" fill="black"></path></mask></defs><filter id="blurFilter"><feGaussianBlur stdDeviation="10"/></filter></svg>
